<svg width="387" height="387" viewBox="0 0 387 387" fill="none" xmlns="http://www.w3.org/2000/svg">
<path d="M193.156 -1.20098e-05C299.833 -1.20098e-05 386.313 86.4787 386.313 193.156C386.313 299.833 299.833 386.313 193.156 386.313C86.4792 386.313 0 299.833 0 193.156C0 86.4787 86.4792 -1.20098e-05 193.156 -1.20098e-05Z" fill="white"/>
<path d="M189.716 211.849C188.777 212.043 187.885 211.575 187.708 210.776C187.531 209.98 188.147 209.171 189.085 208.964C190.02 208.76 190.919 209.237 191.092 210.032C191.271 210.832 190.648 211.639 189.716 211.849ZM174.736 185.311C177.489 185.52 177.955 186.22 178.232 186.975C178.512 187.736 178.311 188.311 176.464 191.748C176.323 192.02 177.053 192.36 177.22 192.168C186.496 181.429 201.457 186.155 204.523 187.295C208.031 188.601 207.44 190.4 206.907 191.013C204.759 193.477 196.851 198.001 195.197 198.677C193.556 199.352 192.999 199.251 191.984 198.219C190.972 197.191 190.181 194.008 190.06 193.631C189.944 193.252 190.095 190.176 190.053 189.837C190.015 189.497 189.235 189.439 189.143 189.76C189.041 190.077 188.432 192.459 188.293 192.835C188.151 193.213 187.68 193.529 187.28 193.475C186.884 193.412 183.177 192.245 182.919 192.18C182.657 192.132 182.381 192.767 182.58 192.941C182.781 193.116 186.547 195.497 187.317 195.989C188.093 196.488 188.644 197.84 188.924 199.444C189.008 199.973 188.809 200.776 187.871 200.975C186.929 201.173 183.013 200.013 182.161 199.684C181.308 199.355 180.496 197.229 180.365 196.861C180.235 196.489 179.4 196.621 179.381 197.057C179.364 197.369 179.471 199.139 179.229 199.66C178.887 200.413 177.476 200.997 175.227 201.28C174.84 201.331 174.896 202.343 175.303 202.348C177.257 202.377 177.847 203.219 178.008 203.777C178.164 204.337 177.995 204.484 176.969 207.073C176.765 207.567 177.696 207.849 177.88 207.637C180.792 204.292 183.141 203.531 187.115 203.672C187.965 203.699 188.339 203.788 187.975 204.277C186.763 205.939 183.5 209.891 175.377 217.572C174.719 218.193 174.629 219.163 175.103 219.831C175.228 220.009 177.397 223.1 177.54 223.303C177.679 223.503 177.977 223.621 178.3 223.48C185.197 220.523 189.801 219.208 189.801 219.208C193.779 225.868 196.911 230.12 199.527 229.368C202.148 228.624 203.048 224.84 203.048 224.84C203.048 224.84 204.951 227.7 207.799 228.663C208.069 228.759 208.189 228.559 208.189 228.34C208.189 227.967 208.189 208.235 208.189 208.235C208.189 208.235 200.395 208.235 200.104 208.235C199.812 208.235 199.62 208.173 199.388 208.02C193.361 203.991 192.517 203.335 194.157 202.479C194.555 202.301 194.937 202.131 195.316 201.956C205.347 197.384 211.036 193.071 211.036 190.004C211.036 186.704 207.541 180.893 203.964 178.175C203.757 178.019 203.207 178.689 203.349 178.852C203.488 179.007 205.811 182.229 205.173 183.281C204.541 184.337 200.529 183.121 199.056 182.285C197.585 181.452 195.887 177.967 194.969 176.559C194.055 175.144 192.399 173.961 192.204 173.861C192.003 173.76 191.545 174.339 191.745 174.536C192.621 175.409 194.843 179.091 193.968 180.716C193.092 182.345 189.616 182.587 188.128 181.171C186.64 179.764 184.808 174.853 184.669 174.52C184.529 174.18 183.757 174.476 183.797 174.692C183.885 175.195 184.472 178.336 183.021 179.285C181.569 180.241 178.669 178.988 177.1 178.153C176.776 177.984 176.247 178.573 176.464 178.749C176.684 178.928 179.804 181.832 179.804 182.508C179.804 183.181 178.015 183.637 174.697 184.476C174.383 184.549 174.477 185.287 174.736 185.311Z" fill="white"/>
<path d="M148.647 211.849C147.708 212.043 146.808 211.575 146.636 210.776C146.459 209.98 147.075 209.171 148.011 208.964C148.944 208.76 149.844 209.237 150.019 210.032C150.192 210.832 149.576 211.639 148.647 211.849ZM133.661 185.311C136.42 185.52 136.881 186.22 137.16 186.975C137.439 187.736 137.241 188.311 135.393 191.748C135.249 192.02 135.981 192.36 136.147 192.168C145.425 181.429 160.383 186.155 163.448 187.295C166.961 188.601 166.368 190.4 165.831 191.013C163.687 193.477 155.777 198.001 154.128 198.677C152.481 199.352 151.923 199.251 150.911 198.219C149.899 197.191 149.107 194.008 148.985 193.631C148.873 193.252 149.023 190.176 148.979 189.837C148.944 189.497 148.163 189.439 148.067 189.76C147.967 190.077 147.36 192.459 147.22 192.835C147.08 193.213 146.607 193.529 146.208 193.475C145.808 193.412 142.104 192.245 141.848 192.18C141.588 192.132 141.313 192.767 141.511 192.941C141.711 193.116 145.468 195.497 146.244 195.989C147.021 196.488 147.571 197.84 147.848 199.444C147.937 199.973 147.737 200.776 146.799 200.975C145.856 201.173 141.941 200.013 141.087 199.684C140.233 199.355 139.423 197.229 139.292 196.861C139.164 196.489 138.329 196.621 138.311 197.057C138.295 197.369 138.395 199.139 138.152 199.66C137.812 200.413 136.404 200.997 134.153 201.28C133.768 201.331 133.828 202.343 134.232 202.348C136.185 202.377 136.771 203.219 136.933 203.777C137.091 204.337 136.927 204.484 135.893 207.073C135.693 207.567 136.623 207.849 136.807 207.637C139.721 204.292 142.068 203.531 146.04 203.672C146.892 203.699 147.267 203.788 146.905 204.277C145.689 205.939 142.428 209.891 134.305 217.572C133.647 218.193 133.559 219.163 134.028 219.831C134.156 220.009 136.324 223.1 136.467 223.303C136.604 223.503 136.904 223.621 137.223 223.48C144.123 220.523 148.725 219.208 148.725 219.208C152.707 225.868 155.839 230.12 158.457 229.368C161.073 228.624 161.975 224.84 161.975 224.84C161.975 224.84 163.873 227.7 166.724 228.663C166.995 228.759 167.116 228.559 167.116 228.34C167.116 227.967 167.116 208.235 167.116 208.235C167.116 208.235 159.327 208.235 159.032 208.235C158.741 208.235 158.548 208.173 158.316 208.02C152.287 203.991 151.447 203.335 153.087 202.479C153.477 202.301 153.867 202.131 154.245 201.956C164.277 197.384 169.963 193.071 169.963 190.004C169.963 186.704 166.465 180.893 162.893 178.175C162.688 178.019 162.137 178.689 162.275 178.852C162.413 179.007 164.739 182.229 164.1 183.281C163.469 184.337 159.455 183.121 157.984 182.285C156.513 181.452 154.812 177.967 153.896 176.559C152.983 175.144 151.328 173.961 151.129 173.861C150.932 173.76 150.473 174.339 150.672 174.536C151.541 175.409 153.775 179.091 152.897 180.716C152.023 182.345 148.544 182.587 147.052 181.171C145.565 179.764 143.736 174.853 143.596 174.52C143.457 174.18 142.685 174.476 142.725 174.692C142.813 175.195 143.399 178.336 141.951 179.285C140.499 180.241 137.597 178.988 136.025 178.153C135.703 177.984 135.176 178.573 135.393 178.749C135.608 178.928 138.728 181.832 138.728 182.508C138.728 183.181 136.943 183.637 133.625 184.476C133.309 184.549 133.405 185.287 133.661 185.311Z" fill="white"/>
<path d="M230.787 211.849C229.848 212.043 228.96 211.575 228.78 210.776C228.608 209.98 229.22 209.171 230.156 208.964C231.088 208.76 231.991 209.237 232.161 210.032C232.337 210.832 231.724 211.639 230.787 211.849ZM215.805 185.311C218.565 185.52 219.024 186.22 219.311 186.975C219.588 187.736 219.385 188.311 217.537 191.748C217.393 192.02 218.127 192.36 218.291 192.168C227.569 181.429 242.531 186.155 245.595 187.295C249.111 188.601 248.508 190.4 247.975 191.013C245.831 193.477 237.921 198.001 236.275 198.677C234.623 199.352 234.069 199.251 233.053 198.219C232.041 197.191 231.251 194.008 231.133 193.631C231.012 193.252 231.164 190.176 231.124 189.837C231.088 189.497 230.313 189.439 230.212 189.76C230.111 190.077 229.507 192.459 229.363 192.835C229.224 193.213 228.749 193.529 228.351 193.475C227.952 193.412 224.252 192.245 223.993 192.18C223.735 192.132 223.456 192.767 223.653 192.941C223.855 193.116 227.619 195.497 228.393 195.989C229.167 196.488 229.713 197.84 229.991 199.444C230.08 199.973 229.884 200.776 228.94 200.975C228.001 201.173 224.085 200.013 223.235 199.684C222.38 199.355 221.567 197.229 221.441 196.861C221.309 196.489 220.473 196.621 220.453 197.057C220.436 197.369 220.544 199.139 220.301 199.66C219.957 200.413 218.551 200.997 216.297 201.28C215.912 201.331 215.965 202.343 216.377 202.348C218.333 202.377 218.92 203.219 219.081 203.777C219.235 204.337 219.071 204.484 218.039 207.073C217.839 207.567 218.767 207.849 218.949 207.637C221.867 204.292 224.209 203.531 228.184 203.672C229.037 203.699 229.409 203.788 229.047 204.277C227.837 205.939 224.572 209.891 216.449 217.572C215.793 218.193 215.704 219.163 216.177 219.831C216.297 220.009 218.472 223.1 218.613 223.303C218.749 223.503 219.048 223.621 219.371 223.48C226.267 220.523 230.871 219.208 230.871 219.208C234.855 225.868 237.987 230.12 240.601 229.368C243.221 228.624 244.121 224.84 244.121 224.84C244.121 224.84 246.02 227.7 248.871 228.663C249.141 228.759 249.263 228.559 249.263 228.34C249.263 227.967 249.263 208.235 249.263 208.235C249.263 208.235 241.469 208.235 241.177 208.235C240.885 208.235 240.693 208.173 240.464 208.02C234.433 203.991 233.591 203.335 235.235 202.479C235.623 202.301 236.012 202.131 236.392 201.956C246.425 197.384 252.111 193.071 252.111 190.004C252.111 186.704 248.611 180.893 245.037 178.175C244.832 178.019 244.283 178.689 244.424 178.852C244.559 179.007 246.885 182.229 246.249 183.281C245.616 184.337 241.597 183.121 240.131 182.285C238.657 181.452 236.959 177.967 236.037 176.559C235.128 175.144 233.468 173.961 233.273 173.861C233.079 173.76 232.619 174.339 232.82 174.536C233.689 175.409 235.921 179.091 235.04 180.716C234.171 182.345 230.695 182.587 229.201 181.171C227.712 179.764 225.879 174.853 225.747 174.52C225.601 174.18 224.829 174.476 224.867 174.692C224.96 175.195 225.547 178.336 224.097 179.285C222.644 180.241 219.74 178.988 218.172 178.153C217.851 177.984 217.323 178.573 217.537 178.749C217.753 178.928 220.877 181.832 220.877 182.508C220.877 183.181 219.088 183.637 215.769 184.476C215.453 184.549 215.551 185.287 215.805 185.311Z" fill="white"/>
<path d="M133.625 184.476C136.943 183.637 138.728 183.181 138.728 182.508C138.728 181.832 135.608 178.928 135.393 178.749C135.176 178.573 135.703 177.984 136.025 178.153C137.597 178.988 140.499 180.241 141.951 179.285C143.399 178.336 142.813 175.195 142.725 174.692C142.685 174.476 143.457 174.18 143.596 174.52C143.736 174.853 145.565 179.764 147.052 181.171C148.544 182.587 152.023 182.345 152.897 180.716C153.775 179.091 151.541 175.409 150.672 174.536C150.473 174.339 150.932 173.76 151.129 173.861C151.328 173.961 152.983 175.144 153.896 176.559C154.812 177.967 156.513 181.452 157.984 182.285C159.455 183.121 163.469 184.337 164.1 183.281C164.739 182.229 162.413 179.007 162.275 178.852C162.137 178.689 162.688 178.019 162.893 178.175C166.465 180.893 169.963 186.704 169.963 190.004C169.963 193.071 164.277 197.384 154.245 201.956C153.867 202.131 153.477 202.301 153.087 202.479C151.447 203.335 152.287 203.991 158.316 208.02C158.548 208.173 158.741 208.235 159.032 208.235C159.327 208.235 167.116 208.235 167.116 208.235C167.116 208.235 167.116 227.967 167.116 228.34C167.116 228.559 166.995 228.759 166.724 228.663C163.873 227.7 161.975 224.84 161.975 224.84C161.975 224.84 161.073 228.624 158.457 229.368C155.839 230.12 152.707 225.868 148.725 219.208C148.725 219.208 144.123 220.523 137.223 223.48C136.904 223.621 136.604 223.503 136.467 223.303C136.324 223.1 134.156 220.009 134.028 219.831C133.559 219.163 133.647 218.193 134.305 217.572C142.428 209.891 145.689 205.939 146.905 204.277C147.267 203.788 146.892 203.699 146.04 203.672C142.068 203.531 139.721 204.292 136.807 207.637C136.623 207.849 135.693 207.567 135.893 207.073C136.927 204.484 137.091 204.337 136.933 203.777C136.771 203.219 136.185 202.377 134.232 202.348C133.828 202.343 133.768 201.331 134.153 201.28C136.404 200.997 137.812 200.413 138.152 199.66C138.395 199.139 138.295 197.369 138.311 197.057C138.329 196.621 139.164 196.489 139.292 196.861C139.423 197.229 140.233 199.355 141.087 199.684C141.941 200.013 145.856 201.173 146.799 200.975C147.737 200.776 147.937 199.973 147.848 199.444C147.571 197.84 147.021 196.488 146.244 195.989C145.468 195.497 141.711 193.116 141.511 192.941C141.313 192.767 141.588 192.132 141.848 192.18C142.104 192.245 145.808 193.412 146.208 193.475C146.607 193.529 147.08 193.213 147.22 192.835C147.36 192.459 147.967 190.077 148.067 189.76C148.163 189.439 148.944 189.497 148.979 189.837C149.023 190.176 148.873 193.252 148.985 193.631C149.107 194.008 149.899 197.191 150.911 198.219C151.923 199.251 152.481 199.352 154.128 198.677C155.777 198.001 163.687 193.477 165.831 191.013C166.368 190.4 166.961 188.601 163.448 187.295C160.383 186.155 145.425 181.429 136.147 192.168C135.981 192.36 135.249 192.02 135.393 191.748C137.241 188.311 137.439 187.736 137.16 186.975C136.881 186.22 136.42 185.52 133.661 185.311C133.405 185.287 133.309 184.549 133.625 184.476ZM174.697 184.476C178.015 183.637 179.804 183.181 179.804 182.508C179.804 181.832 176.684 178.928 176.464 178.749C176.247 178.573 176.776 177.984 177.1 178.153C178.669 178.988 181.569 180.241 183.021 179.285C184.472 178.336 183.885 175.195 183.797 174.692C183.757 174.476 184.529 174.18 184.669 174.52C184.808 174.853 186.64 179.764 188.128 181.171C189.616 182.587 193.092 182.345 193.968 180.716C194.843 179.091 192.621 175.409 191.745 174.536C191.545 174.339 192.003 173.76 192.204 173.861C192.399 173.961 194.055 175.144 194.969 176.559C195.887 177.967 197.585 181.452 199.056 182.285C200.529 183.121 204.541 184.337 205.173 183.281C205.811 182.229 203.488 179.007 203.349 178.852C203.207 178.689 203.757 178.019 203.964 178.175C207.541 180.893 211.036 186.704 211.036 190.004C211.036 193.071 205.347 197.384 195.316 201.956C194.937 202.131 194.555 202.301 194.157 202.479C192.517 203.335 193.361 203.991 199.388 208.02C199.62 208.173 199.812 208.235 200.104 208.235C200.395 208.235 208.189 208.235 208.189 208.235C208.189 208.235 208.189 227.967 208.189 228.34C208.189 228.559 208.069 228.759 207.799 228.663C204.951 227.7 203.048 224.84 203.048 224.84C203.048 224.84 202.148 228.624 199.527 229.368C196.911 230.12 193.779 225.868 189.801 219.208C189.801 219.208 185.197 220.523 178.3 223.48C177.977 223.621 177.679 223.503 177.54 223.303C177.397 223.1 175.228 220.009 175.103 219.831C174.629 219.163 174.719 218.193 175.377 217.572C183.5 209.891 186.763 205.939 187.975 204.277C188.339 203.788 187.965 203.699 187.115 203.672C183.141 203.531 180.792 204.292 177.88 207.637C177.696 207.849 176.765 207.567 176.969 207.073C177.995 204.484 178.164 204.337 178.008 203.777C177.847 203.219 177.257 202.377 175.303 202.348C174.896 202.343 174.84 201.331 175.227 201.28C177.476 200.997 178.887 200.413 179.229 199.66C179.471 199.139 179.364 197.369 179.381 197.057C179.4 196.621 180.235 196.489 180.365 196.861C180.496 197.229 181.308 199.355 182.161 199.684C183.013 200.013 186.929 201.173 187.871 200.975C188.809 200.776 189.008 199.973 188.924 199.444C188.644 197.84 188.093 196.488 187.317 195.989C186.547 195.497 182.781 193.116 182.58 192.941C182.381 192.767 182.657 192.132 182.919 192.18C183.177 192.245 186.884 193.412 187.28 193.475C187.68 193.529 188.151 193.213 188.293 192.835C188.432 192.459 189.041 190.077 189.143 189.76C189.235 189.439 190.015 189.497 190.053 189.837C190.095 190.176 189.944 193.252 190.06 193.631C190.181 194.008 190.972 197.191 191.984 198.219C192.999 199.251 193.556 199.352 195.197 198.677C196.851 198.001 204.759 193.477 206.907 191.013C207.44 190.4 208.031 188.601 204.523 187.295C201.457 186.155 186.496 181.429 177.22 192.168C177.053 192.36 176.323 192.02 176.464 191.748C178.311 188.311 178.512 187.736 178.232 186.975C177.955 186.22 177.489 185.52 174.736 185.311C174.477 185.287 174.383 184.549 174.697 184.476ZM215.769 184.476C219.088 183.637 220.877 183.181 220.877 182.508C220.877 181.832 217.753 178.928 217.537 178.749C217.323 178.573 217.851 177.984 218.172 178.153C219.74 178.988 222.644 180.241 224.097 179.285C225.547 178.336 224.96 175.195 224.867 174.692C224.829 174.476 225.601 174.18 225.747 174.52C225.879 174.853 227.712 179.764 229.201 181.171C230.695 182.587 234.171 182.345 235.04 180.716C235.921 179.091 233.689 175.409 232.82 174.536C232.619 174.339 233.079 173.76 233.273 173.861C233.468 173.961 235.128 175.144 236.037 176.559C236.959 177.967 238.657 181.452 240.131 182.285C241.597 183.121 245.616 184.337 246.249 183.281C246.885 182.229 244.559 179.007 244.424 178.852C244.283 178.689 244.832 178.019 245.037 178.175C248.611 180.893 252.111 186.704 252.111 190.004C252.111 193.071 246.425 197.384 236.392 201.956C236.012 202.131 235.623 202.301 235.235 202.479C233.591 203.335 234.433 203.991 240.464 208.02C240.693 208.173 240.885 208.235 241.177 208.235C241.469 208.235 249.263 208.235 249.263 208.235C249.263 208.235 249.263 227.967 249.263 228.34C249.263 228.559 249.141 228.759 248.871 228.663C246.02 227.7 244.121 224.84 244.121 224.84C244.121 224.84 243.221 228.624 240.601 229.368C237.987 230.12 234.855 225.868 230.871 219.208C230.871 219.208 226.267 220.523 219.371 223.48C219.048 223.621 218.749 223.503 218.613 223.303C218.472 223.1 216.297 220.009 216.177 219.831C215.704 219.163 215.793 218.193 216.449 217.572C224.572 209.891 227.837 205.939 229.047 204.277C229.409 203.788 229.037 203.699 228.184 203.672C224.209 203.531 221.867 204.292 218.949 207.637C218.767 207.849 217.839 207.567 218.039 207.073C219.071 204.484 219.235 204.337 219.081 203.777C218.92 203.219 218.333 202.377 216.377 202.348C215.965 202.343 215.912 201.331 216.297 201.28C218.551 200.997 219.957 200.413 220.301 199.66C220.544 199.139 220.436 197.369 220.453 197.057C220.473 196.621 221.309 196.489 221.441 196.861C221.567 197.229 222.38 199.355 223.235 199.684C224.085 200.013 228.001 201.173 228.94 200.975C229.884 200.776 230.08 199.973 229.991 199.444C229.713 197.84 229.167 196.488 228.393 195.989C227.619 195.497 223.855 193.116 223.653 192.941C223.456 192.767 223.735 192.132 223.993 192.18C224.252 192.245 227.952 193.412 228.351 193.475C228.749 193.529 229.224 193.213 229.363 192.835C229.507 192.459 230.111 190.077 230.212 189.76C230.313 189.439 231.088 189.497 231.124 189.837C231.164 190.176 231.012 193.252 231.133 193.631C231.251 194.008 232.041 197.191 233.053 198.219C234.069 199.251 234.623 199.352 236.275 198.677C237.921 198.001 245.831 193.477 247.975 191.013C248.508 190.4 249.111 188.601 245.595 187.295C242.531 186.155 227.569 181.429 218.291 192.168C218.127 192.36 217.393 192.02 217.537 191.748C219.385 188.311 219.588 187.736 219.311 186.975C219.024 186.22 218.565 185.52 215.805 185.311C215.551 185.287 215.453 184.549 215.769 184.476ZM121.748 258.261H262.449V150.672H121.748V258.261Z" fill="#231F20"/>
<path d="M148.011 208.964C147.075 209.171 146.459 209.98 146.636 210.776C146.808 211.575 147.708 212.043 148.647 211.849C149.576 211.639 150.192 210.832 150.019 210.032C149.844 209.237 148.944 208.76 148.011 208.964Z" fill="#231F20"/>
<path d="M189.085 208.964C188.147 209.171 187.531 209.98 187.708 210.776C187.885 211.575 188.777 212.043 189.716 211.849C190.648 211.639 191.271 210.832 191.092 210.032C190.919 209.237 190.02 208.76 189.085 208.964Z" fill="#231F20"/>
<path d="M230.156 208.964C229.22 209.171 228.608 209.98 228.78 210.776C228.96 211.575 229.848 212.043 230.787 211.849C231.724 211.639 232.337 210.832 232.161 210.032C231.991 209.237 231.088 208.76 230.156 208.964Z" fill="#231F20"/>
<path d="M262.449 138.967L192.184 108.249L121.748 139.063V144.385H262.449V138.967Z" fill="#231F20"/>
<path d="M309.495 123.973C313.329 123.973 316.449 120.855 316.449 117.02C316.449 113.185 313.329 110.067 309.495 110.067C305.661 110.067 302.543 113.185 302.543 117.02C302.543 120.855 305.661 123.973 309.495 123.973Z" fill="#231F20"/>
<path d="M75.436 123.945C79.2697 123.945 82.3891 120.825 82.3891 116.992C82.3891 113.157 79.2697 110.037 75.436 110.037C71.6021 110.037 68.4823 113.157 68.4823 116.992C68.4823 120.825 71.6021 123.945 75.436 123.945Z" fill="#231F20"/>
<path d="M52.3563 185.176L59.2344 186.365C62.1229 186.863 68.1339 187.897 69.6484 188.897C69.9016 189.044 70.2448 189.809 70.2245 190.944C70.2145 191.003 70.2145 191.003 70.1828 192.425L70.1797 192.58L70.2355 192.723C70.3396 192.989 70.5068 193.216 71.7276 193.723L72.0375 193.851L73.3036 193.272L73.4167 192.977C73.4672 192.845 73.5073 192.744 73.9604 186.777L74.8109 180.321L74.7927 180.209C74.7516 179.951 74.6527 179.716 73.7541 179.051L73.5131 178.873L71.938 179.039L71.7364 179.331C71.6563 179.449 71.5453 179.609 71.2557 181.151C71.0099 182.451 70.6016 182.932 70.412 183.005C69.8932 183.199 67.7787 183.485 59.3765 182.031L52.9833 180.925C43.8131 179.336 39.7536 175.116 40.9183 168.383C41.4531 165.288 42.6563 163.119 44.5964 161.751C47.1713 159.937 51.0937 159.52 56.5839 160.471L68.5959 162.549C74.2713 163.535 74.2645 163.581 73.9287 166.016L73.7057 167.537L73.7541 167.7C73.8563 168.048 74.1667 168.655 75.1 168.8C75.6631 168.88 76.4115 168.779 76.8287 168.251L76.9287 168.085C76.9735 167.983 77.0068 167.909 78.3995 160.968L80.1677 153.912L80.138 153.749C80.0255 153.115 79.5541 152.643 78.8547 152.455C78.1849 152.265 77.5516 152.395 77.1636 152.799L77.0473 152.955C77.0047 153.031 76.9563 153.116 76.5068 154.567C75.7932 156.839 75.7193 157.076 69.7245 156.04L56.5948 153.768C49.6973 152.571 45.1651 153.276 41.9145 156.045C39.2823 158.225 37.5339 161.745 36.7177 166.507C35.9287 171.035 36.8521 175.673 39.1219 178.605C41.6307 181.92 45.9599 184.068 52.3563 185.176Z" fill="#231F20"/>
<path d="M78.6765 241.955C78.8645 242.081 79.4271 242.664 80.2115 244.167L80.6729 245.072L80.8401 245.183C81.4235 245.572 82.1172 245.636 82.7255 245.355C83.2427 245.133 83.6099 244.713 83.7328 244.203L83.762 244.079L83.7511 243.952C83.7391 243.82 83.7292 243.717 81.6287 238.135L79.5896 231.723L79.4787 231.504C79.1031 230.983 78.5031 230.735 77.8167 230.833C77.1391 230.936 76.5776 231.344 76.3511 231.899L76.2964 232.124C76.2869 232.228 76.2745 232.369 76.5052 233.425C76.9833 235.664 76.8375 236.148 76.7973 236.223C76.6099 236.441 75.2265 237.652 66.4151 240.013L54.7057 243.155C54.6312 243.175 54.5521 243.196 54.4703 243.217C55.5541 241.633 57.4421 238.699 60.9131 233.283L60.9161 233.279C61.0781 233.031 65.4328 226.408 65.4328 226.408L66.1136 225.389C67.8943 222.725 72.6265 215.648 74.7724 214.139L75.0667 213.912L75.1 213.556C75.1115 213.429 75.1473 213.045 74.4599 210.685L73.2912 204.529L73.1631 204.228C72.8073 203.724 72.2973 203.481 71.6823 203.521C71.0183 203.568 70.3828 203.925 70.0656 204.432L69.9703 204.656C69.9443 204.761 69.9041 204.919 70.0073 205.997C70.1265 207.349 69.9667 208.447 69.5745 209.06C68.7989 210.176 68.0136 210.48 66.4047 210.905L50.5027 215.116L49.5855 215.364C46.9213 216.089 41.3688 217.591 39.662 217.411C39.5797 217.397 39.1755 217.103 38.826 215.972L38.3527 214.56L38.2193 214.317C38.0437 214.101 37.8167 213.931 36.6541 213.865L36.3547 213.847L35.0964 214.875L35.0751 215.211C35.0661 215.355 35.0584 215.469 36.4323 221.123L37.6027 227.505L37.6932 227.752C37.8136 227.96 38.0021 228.172 38.9735 228.455L39.2672 228.54L40.5125 227.904L40.8495 227.6L40.9349 227.26C40.9661 226.936 40.8584 225.857 40.7896 225.223C40.7177 224.697 40.7011 224.221 40.7396 223.812C40.7964 223.228 40.9469 223.043 40.9469 223.043L40.9427 223.044C42.0719 222.056 47.9443 220.243 51.6172 219.264L63.5005 216.075C64.0151 215.936 64.4807 215.821 64.8921 215.732C63.3016 218.057 60.4068 222.297 60.4068 222.297C60.3131 222.439 49.4005 238.812 49.4005 238.812C44.8896 245.576 43.7063 247.183 43.0995 247.909L42.8781 248.176L42.9297 248.517C43.0979 249.644 43.7521 250.352 44.6797 250.409L44.8432 250.42L44.9964 250.363C45.562 250.152 47.5245 249.525 54.3084 247.707L68.2229 243.971C70.5631 243.34 76.7328 241.677 78.6765 241.955Z" fill="#231F20"/>
<path d="M96.6276 269.345C97.1989 269.616 97.8464 269.519 98.4052 269.078C98.6219 268.911 99.3104 268.303 99.2136 267.5L99.1584 267.295C99.114 267.188 99.0817 267.112 94.9604 261.4L91.0907 255.44L90.8683 255.217C90.3188 254.853 89.6245 254.882 88.9636 255.28C88.3599 255.643 88.0317 256.143 88.0385 256.688L88.0672 256.885C88.0943 256.984 88.1224 257.084 88.8719 258.397C90.0568 260.484 90.1276 260.609 85.1573 264.013L68.5713 275.361C63.7167 278.691 63.6531 278.612 62.0131 276.741L60.9245 275.495L60.7016 275.432C60.0364 275.245 59.3527 275.435 58.8303 275.94C58.3959 276.353 58.186 276.868 58.2536 277.348L58.3027 277.528C58.3484 277.641 58.3787 277.716 62.5625 283.531L66.3693 289.394L66.6011 289.623C66.8557 289.787 67.138 289.868 67.436 289.868C67.7755 289.868 68.1355 289.761 68.4969 289.551C69.0907 289.197 69.4271 288.684 69.4219 288.143L69.3921 287.939C69.3693 287.858 69.3427 287.766 68.6511 286.436C67.4979 284.227 67.4527 284.14 72.3027 280.823L88.8907 269.468C93.8584 266.064 93.9511 266.172 95.464 268.033L96.3599 269.135L96.6276 269.345Z" fill="#231F20"/>
<path d="M136.404 302.16C137.08 302.109 137.685 301.683 138.027 301.021V301.02C138.288 300.508 138.319 299.988 138.111 299.559L137.985 299.373C137.899 299.277 137.829 299.203 133.243 296.316L128.442 292.858L128.261 292.828C127.606 292.727 126.98 292.968 126.532 293.503C126.244 293.847 126.078 294.232 126.051 294.629C126.042 294.785 126.055 294.939 126.091 295.085L126.184 295.312C126.237 295.397 126.318 295.528 127.162 296.257C127.796 296.804 128.089 297.165 128.22 297.353L126.961 298.453L104.939 311.007C106.214 306.105 109.648 292.876 109.648 292.876C110.625 289.245 111.54 286.512 111.957 285.413C112.212 285.521 112.66 285.751 113.411 286.237L114.298 286.796L114.493 286.809C115.147 286.849 115.719 286.57 116.095 286.009C116.45 285.471 116.544 284.835 116.345 284.312L116.247 284.132C116.169 284.025 116.118 283.953 110.708 279.619L106.154 275.548L105.961 275.504C105.305 275.351 104.695 275.532 104.233 276.015C103.807 276.475 103.619 277.085 103.73 277.652L103.798 277.852C103.847 277.948 103.906 278.065 104.696 278.883C105.999 280.268 106.09 281.282 105.208 284.589L98.2437 310.465C97.6328 312.94 96.7541 315.643 95.8328 317.882L95.7645 318.048L95.7765 318.228C95.7885 318.4 95.8079 318.684 96.6088 319.594L96.8396 319.853L97.9969 320.228L98.3339 319.999C101.169 318.068 107.477 314.327 111.969 311.788L118.589 308.094C124.353 304.88 129.208 302.464 131.816 301.282C133.128 300.717 133.849 300.853 134.519 301.225L136.167 302.177L136.404 302.16Z" fill="#231F20"/>
<path d="M172.225 310.544C171.665 310.511 168.173 309.432 165.367 308.565L165.191 308.511C165.145 308.496 155.011 305.359 155.011 305.359L148.548 303.177L148.384 303.192C147.741 303.253 147.216 303.704 146.944 304.419C146.852 304.655 146.591 305.473 147.087 306.097L147.228 306.235C147.291 306.282 147.376 306.345 148.289 306.759C150.565 307.772 150.653 307.811 148.933 313.372L142.92 332.788C141.193 338.371 140.949 338.319 138.636 337.816L136.584 337.38L136.364 337.466C135.723 337.727 135.296 338.297 135.196 339.027C135.108 339.624 135.26 340.159 135.612 340.494L135.781 340.615C135.873 340.665 135.945 340.703 143.387 342.832L163.063 349.109L163.395 348.796C164.893 347.384 167.587 343.525 168.551 341.755L168.651 341.573L168.645 341.366C168.628 340.696 168.324 340.155 167.772 339.803C167.267 339.472 166.663 339.376 166.148 339.54L165.967 339.599L165.832 339.736C163.493 342.141 161.621 343.389 160.833 343.556C159.608 343.753 157.921 343.431 154.141 342.261C149.256 340.743 148.801 339.889 148.593 339.5C148.169 338.637 148.595 336.801 149.365 334.312L151.719 326.708C151.768 326.551 151.829 326.352 151.88 326.216C152.088 326.26 152.429 326.365 152.716 326.452L155.841 327.425C157.683 327.996 159.037 328.457 159.679 328.875C160.183 329.18 160.328 329.597 160.253 330.531L160.072 332.951L160.131 333.108C160.359 333.717 160.899 334.152 161.615 334.304C162.223 334.432 162.789 334.304 163.168 333.955L163.291 333.808C163.367 333.689 163.417 333.612 163.977 331.478L164.817 328.312L166.781 322.752L166.753 322.563C166.665 321.956 166.277 321.483 165.673 321.237C165.169 321.024 164.431 320.924 163.86 321.292L163.708 321.421C163.635 321.503 163.571 321.572 162.412 323.729C161.892 324.685 161.697 324.691 161.381 324.699C160.952 324.721 159.553 324.435 157.001 323.648C156.896 323.616 153.883 322.682 153.883 322.682C153.569 322.583 153.248 322.484 153.06 322.408C153.096 322.261 153.161 322.049 153.22 321.856L156.565 311.068C156.701 310.625 156.851 310.137 156.961 309.883C157.169 309.929 157.484 310.025 157.608 310.065L161.489 311.263C163.744 311.963 165.443 312.545 166.405 313.113C168.415 314.333 168.423 315.84 168.435 318.333V318.66L168.481 318.923C168.619 319.303 168.953 319.799 169.761 320.005C170.001 320.068 170.836 320.223 171.436 319.732L171.597 319.549C171.651 319.465 171.749 319.311 171.937 318.436C172.625 315.208 173.192 312.457 173.156 311.49L173.123 310.597L172.225 310.544Z" fill="#231F20"/>
<path d="M209.377 327.916C208.02 329.175 205.953 329.523 204.307 329.685C202.528 329.861 201.671 329.829 201.251 329.897C201.207 329.576 201.163 329.124 201.136 328.836L199.847 315.67C199.833 315.524 199.795 315.078 199.756 315.063C200.056 314.853 201.728 314.771 202.357 314.74C208.523 314.46 210.941 318.009 211.184 321.47C211.393 324.497 210.817 326.548 209.377 327.916ZM228.957 344.932L228.844 344.903L228.729 344.909C227.365 344.97 226.029 344.628 225.085 343.987C220.877 341.289 217.232 336.992 212.151 330.744C212.131 330.719 212.115 330.699 212.1 330.677C213.772 329.712 218.717 326.299 218.093 319.955C217.604 314.968 214.529 312.728 212.051 311.735C209.391 310.608 206.372 310.763 203.08 310.941L202.148 310.992C197.005 311.255 193.045 311.603 189.688 312.089L189.441 312.17C188.876 312.466 188.565 312.997 188.565 313.64C188.547 314.17 188.747 314.928 189.367 315.329L189.533 315.411C189.64 315.447 189.732 315.48 191.639 315.621C193.033 315.723 193.283 315.743 193.804 321.273L195.757 341.617C196.305 347.216 196.305 347.216 193.899 347.64L192.249 347.929L192.071 348.124C191.599 348.641 191.44 349.309 191.628 350.015C191.783 350.576 192.107 350.987 192.541 351.175L192.732 351.229C192.752 351.232 192.769 351.236 192.821 351.236C193.072 351.236 194.116 351.17 199.96 350.721L206.647 350.541L206.973 350.459C207.276 350.305 207.792 349.916 207.853 349.011C207.892 348.299 207.643 347.671 207.191 347.335L206.989 347.227C206.899 347.194 206.788 347.153 205.488 347.036C202.957 346.821 202.909 346.816 202.332 340.971L201.636 333.894C201.628 333.823 201.621 333.745 201.615 333.676C201.925 333.609 202.555 333.548 203.264 333.477C205.188 333.29 205.952 333.703 206.739 334.588L213.411 342.323C218.175 347.539 221.236 348.925 226.66 348.231L229.349 347.566L229.499 347.425C229.936 347.009 230.099 346.455 229.94 345.896C229.796 345.413 229.428 345.053 228.957 344.932Z" fill="#231F20"/>
<path d="M253.528 303.876H253.529V303.877L253.528 303.876ZM253.284 313.741L247.979 313.575C244.547 313.408 242.249 312.365 241.152 310.477C240.845 309.949 240.325 308.884 240.291 307.672C240.24 305.841 241.305 304.28 243.456 303.029C247.405 300.735 250.045 302.508 252.105 304.541L252.339 304.699C252.705 304.86 253.285 304.957 253.953 304.521C254.401 304.227 254.891 303.68 254.921 303.032L254.933 302.811L254.824 302.617C253.529 300.312 251.397 297.731 250.22 296.768L250.032 296.612L249.788 296.595C249.631 296.585 249.375 296.564 247.48 297.273C245.893 297.643 243.912 298.451 242.313 299.383C239.176 301.204 236.993 303.64 236.001 306.424C234.993 309.257 235.296 312.194 236.877 314.916C239.453 319.361 244.253 320.536 247.829 320.737L254.229 321.072C258.819 321.288 260.332 323.259 261.395 325.092C262.157 326.401 262.383 327.858 262.032 329.188C261.644 330.652 260.563 331.935 258.908 332.896C255.185 335.063 251.341 334.3 247.473 330.636L247.3 330.513C246.82 330.261 246.281 330.283 245.795 330.56C245.344 330.807 244.789 331.352 244.716 332.08L244.688 332.341L244.825 332.563C246.237 334.855 249.013 338.209 250.477 339.097L250.656 339.207L250.864 339.209C250.928 339.211 250.992 339.211 251.06 339.211C252.799 339.211 256.129 338.829 260.145 336.485C263.719 334.416 266.06 331.615 266.916 328.383C267.172 327.407 267.287 326.423 267.259 325.455C267.207 323.613 266.668 321.8 265.657 320.07C263.285 315.982 259.239 313.912 253.284 313.741Z" fill="#231F20"/>
<path d="M301.56 303.924L301.384 303.972C301.296 304.007 301.203 304.044 299.969 304.911C297.892 306.376 297.853 306.4 293.92 302.037L280.483 287.09C276.456 282.609 276.553 282.504 278.189 280.761L279.296 279.601L279.349 279.428C279.455 279.087 279.529 278.408 278.837 277.7C278.584 277.453 277.909 276.912 277.156 277.12L277.001 277.183C276.88 277.247 276.813 277.282 271.68 282.135L266.288 286.759L266.096 287.011C265.813 287.596 265.925 288.277 266.415 288.892C266.996 289.592 267.568 289.671 267.931 289.615L268.115 289.564C268.209 289.524 268.308 289.484 269.509 288.568C271.423 287.117 271.54 287.036 275.565 291.507L289.009 306.448C292.94 310.824 292.875 310.897 291.229 312.773L290.145 314.012L290.112 314.239C290.013 314.928 290.281 315.563 290.867 316.032C291.227 316.319 291.613 316.466 291.987 316.466C292.099 316.466 292.207 316.455 292.313 316.427L292.503 316.353C292.615 316.29 292.683 316.252 297.917 311.309L297.887 311.278C298.437 310.866 299.727 309.76 303.201 306.78L303.399 306.52C303.673 305.936 303.555 305.256 303.079 304.655C302.649 304.113 302.085 303.845 301.56 303.924Z" fill="#231F20"/>
<path d="M332.263 264.294C331.989 264.109 331.288 263.721 330.588 264.063L330.393 264.2C330.335 264.256 330.261 264.327 329.183 265.861C327.763 267.827 327.704 267.9 322.667 265.015L300.859 252.533C300.577 252.372 300.271 252.197 300.069 252.069C300.159 251.895 300.288 251.669 300.377 251.511L302.368 248.037C303.793 245.548 305.145 244.011 306.385 243.464C306.641 243.356 307.712 243.373 309.883 244.292L310.064 244.367L310.259 244.349C310.943 244.281 311.52 243.827 311.795 243.151C312.056 242.553 312.027 241.949 311.716 241.493L311.596 241.32L311.405 241.229C309.844 240.497 306.177 237.951 304.567 236.347L304.384 236.165L304.128 236.131C303.133 235.996 302.348 236.956 302.235 237.705L302.196 237.964L302.321 238.193C302.963 239.359 303 239.428 301.543 241.965L290.183 261.808C288.68 264.443 288.219 264.92 287.464 264.657L287.267 264.589L287.063 264.631C286.112 264.816 285.584 266.025 285.623 266.596L285.645 266.913L285.883 267.121C286.82 267.944 290.032 270.813 292.092 273.212L292.264 273.412L292.524 273.465C293.236 273.608 293.888 273.395 294.367 272.876C294.776 272.447 294.969 271.894 294.897 271.358L294.807 271.076L294.695 270.919C293.851 269.741 293.121 268.724 292.763 267.125C292.384 265.477 294.135 262.419 294.881 261.112L296.424 258.419C296.509 258.266 296.659 258.004 296.776 257.824C296.976 257.923 297.257 258.085 297.484 258.215L319.383 270.751C324.451 273.653 324.347 273.876 323.361 276.013L322.499 277.86L322.425 278.18C322.421 278.87 322.796 279.456 323.46 279.792C323.773 279.949 324.092 280.028 324.391 280.028C324.68 280.028 324.948 279.953 325.171 279.807L325.316 279.682C325.397 279.59 325.452 279.532 329.24 272.564L329.172 272.527C329.657 271.876 330.628 270.265 333.037 266.268L333.144 265.961C333.217 265.321 332.897 264.715 332.263 264.294Z" fill="#231F20"/>
<path d="M350.968 206.585C349.397 205.247 345.268 202.993 343.405 202.232L343.212 202.153L343.005 202.181C342.337 202.276 341.829 202.644 341.537 203.244C341.279 203.78 341.256 204.391 341.479 204.875L341.557 205.045L341.704 205.161C344.349 207.223 345.793 208.944 346.044 209.709C346.38 210.891 346.24 212.604 345.493 216.497C344.524 221.539 343.728 222.071 343.361 222.317C342.549 222.831 340.679 222.612 338.12 222.121L330.42 220.649L329.809 220.425C329.839 220.191 329.901 219.869 329.94 219.664L330.561 216.443C330.869 214.821 331.205 213.22 331.581 212.467C331.825 211.936 332.221 211.749 333.157 211.721L335.419 211.635L335.728 211.559C336.305 211.277 336.685 210.695 336.764 209.956C336.828 209.331 336.64 208.777 336.248 208.441L336.067 208.325C335.953 208.275 335.864 208.235 333.705 207.917L330.452 207.431L324.716 206.093L324.532 206.14C324.115 206.245 323.567 206.545 323.32 207.377C323.169 207.9 323.16 208.644 323.589 209.16L323.729 209.291C323.823 209.359 323.889 209.407 326.163 210.321C327.175 210.739 327.2 210.928 327.24 211.235C327.295 211.677 327.176 213.084 326.673 215.701L326.059 218.915C325.997 219.239 325.932 219.569 325.876 219.764C325.728 219.744 325.508 219.701 325.309 219.664L314.225 217.528C313.715 217.429 313.228 217.336 313.001 217.259C313.016 217.099 313.068 216.833 313.112 216.596L313.879 212.607C314.32 210.301 314.709 208.552 315.169 207.521C316.155 205.4 317.643 205.224 320.099 204.931L320.451 204.895L320.715 204.82C321.079 204.639 321.536 204.253 321.652 203.441C321.687 203.196 321.76 202.349 321.2 201.796L320.991 201.649C320.903 201.607 320.736 201.527 319.827 201.439C316.557 201.107 313.771 200.847 312.812 200.992L311.92 201.133L311.975 202.031C312.008 202.591 311.316 206.195 310.76 209.088L308.72 219.703L307.26 226.365L307.296 226.529C307.432 227.161 307.937 227.633 308.68 227.823C309.352 227.995 309.952 227.873 310.332 227.492L310.436 227.361C310.485 227.284 310.541 227.195 310.851 226.228C311.603 223.857 311.632 223.764 317.356 224.861L337.319 228.695C343.055 229.8 343.029 230.045 342.787 232.392L342.576 234.499L342.692 234.708C343.028 235.319 343.645 235.676 344.379 235.689C344.397 235.689 344.419 235.689 344.44 235.689C345.011 235.689 345.497 235.48 345.78 235.108L345.881 234.932C345.923 234.829 345.952 234.757 347.248 227.125L351.315 206.88L350.968 206.585Z" fill="#231F20"/>
<path d="M312.289 164.937C312.244 164.783 312.189 164.533 312.14 164.305L312.133 164.307C312.08 164.029 311.899 163.193 311.289 160.376C310.683 157.568 310.659 155.533 311.22 154.32C311.336 154.067 312.14 153.403 314.356 152.699L314.545 152.637L314.681 152.495C315.151 152 315.288 151.307 315.057 150.596C314.86 149.977 314.44 149.536 313.909 149.385L313.703 149.327L313.495 149.384C311.835 149.841 307.383 150.291 305.115 150.127L304.864 150.108L304.649 150.243C304.312 150.455 304.088 150.784 304.003 151.196C303.883 151.771 304.055 152.363 304.281 152.696L304.42 152.899L304.649 152.985C305.885 153.445 305.987 153.484 306.612 156.367L311.455 178.757C312.091 181.716 312.072 182.372 311.355 182.656L311.157 182.733L311.028 182.901C310.435 183.669 310.843 184.931 311.253 185.336L311.476 185.553L311.787 185.556C314.312 185.58 317.927 185.745 320.495 186.133L320.757 186.173L320.988 186.043C321.607 185.695 321.96 185.113 321.987 184.405C322.005 183.812 321.785 183.264 321.383 182.905L321.24 182.777L320.884 182.691C319.483 182.347 318.271 182.051 316.948 181.084C315.711 180.181 314.977 177.432 314.479 175.139L313.821 172.096C313.787 171.931 313.725 171.648 313.692 171.436C313.893 171.385 314.184 171.331 314.452 171.279L339.187 166.563C344.923 165.469 344.993 165.707 345.633 167.977L346.18 169.94L346.325 170.22C346.761 170.756 347.429 170.964 348.16 170.784C348.832 170.624 349.321 170.208 349.469 169.672L349.497 169.5C349.501 169.373 349.504 169.297 347.86 161.565L346.64 154.276L346.52 153.976C346.164 153.44 345.52 153.189 344.757 153.284C344.069 153.375 343.556 153.711 343.347 154.207L343.297 154.379C343.279 154.489 343.263 154.584 343.44 156.487C343.648 158.891 343.656 158.985 337.949 160.072L313.203 164.783C312.852 164.849 312.493 164.917 312.289 164.937Z" fill="#231F20"/>
<path d="M88.8339 79.812L89.0276 79.7734C89.1297 79.7374 89.2349 79.7014 90.4609 78.86C92.4979 77.488 92.4979 77.4893 95.6751 81.932C95.8041 82.104 103.626 92.672 103.626 92.672C107.761 98.324 111.511 100.961 115.771 101.221C116.065 101.244 116.359 101.255 116.655 101.255C119.728 101.255 122.935 100.02 126.659 97.4147C130.506 94.728 132.832 91.3614 133.387 87.684C134.047 83.5734 132.609 78.956 128.991 73.5734L125.436 68.2774C122.985 64.624 120.399 60.264 120.14 58.716C120.094 58.5147 120.41 57.8467 121.38 57.1454L122.47 56.356L122.681 56.1254C122.831 55.872 122.92 55.5654 122.492 54.3614L122.387 54.0653L121.097 53.4333L120.806 53.5214C120.675 53.5614 120.579 53.5894 115.565 56.816L115.579 56.8374C115.061 57.1 113.752 57.8427 110.057 59.94L109.863 60.096C109.691 60.288 109.554 60.532 109.63 61.5627L109.652 61.8627L110.869 63.0027L111.208 62.976C111.346 62.9654 111.518 62.9507 112.913 62.26C114.353 61.5414 114.939 61.728 115.077 61.7973C116.441 62.512 119.549 67.1827 121.219 69.6947L125.487 76.06C127.837 79.556 129.105 82.66 129.256 85.2854C129.439 88.4347 128.055 90.9947 125.025 93.112C119.048 97.292 114.045 95.7187 108.287 87.8534L101.044 78.0254L100.84 77.7387C97.6516 73.292 97.6516 73.292 99.3265 71.6693L100.297 70.732L100.478 70.4627C100.618 70.1107 100.752 69.4093 100.081 68.664C99.6156 68.144 99.0495 67.9027 98.524 68.0067L98.3224 68.076C98.214 68.1307 98.1364 68.1707 92.8891 72.6547L87.4333 76.8574L87.2208 77.1094C86.9224 77.68 87.0005 78.3973 87.4364 79.0347C87.8088 79.5667 88.3224 79.8507 88.8339 79.812Z" fill="#231F20"/>
<path d="M195.56 74.3774L195.724 74.2814C196.084 74.0707 196.517 73.6574 196.54 72.8854C196.553 72.3587 196.371 71.64 195.821 71.2027L195.601 71.08C195.479 71.036 195.351 70.9894 193.423 70.948C191.715 70.888 191.549 70.392 190.956 67.7614L185.975 43.112C185.316 39.4654 185.483 39.1307 188.187 38.6174L189.549 38.3854L189.712 38.2454C190.155 37.8614 190.347 37.2734 190.24 36.652C190.205 36.4014 190.04 35.5493 189.355 35.1707L189.116 35.0867C188.979 35.0587 188.884 35.0427 183.893 35.5787L178.665 35.7467L178.745 36.8307C178.773 37.0493 178.787 37.2787 178.793 37.5107C178.845 39.88 177.813 43.2094 176.353 47.916C176.303 48.0867 172.625 60.3987 172.625 60.3987C172.623 60.408 171.315 64.5027 170.565 66.8507C169.945 65.9347 168.933 64.5133 167.279 62.2747L158.02 49.0947C156.901 47.588 153.931 43.5867 153.773 41.1773L153.673 39.9894L148.092 41.508C147.887 41.552 143.595 42.3894 143.595 42.3894L143.3 42.5134C142.793 42.8694 142.516 43.4147 142.52 44.044C142.52 44.672 142.765 45.24 143.176 45.5667L143.453 45.7067C143.633 45.756 143.857 45.764 144.759 45.6827L144.775 45.6814C147.595 45.4854 147.819 45.5467 148.243 48.5934C148.243 48.6414 148.243 48.6414 149.72 61.02L150.725 72.4653L150.86 74.2107C151.145 77.708 150.651 77.896 148.817 78.6013L148.819 78.6067C148.639 78.6707 148.307 78.8027 147.609 79.0827L147.329 79.2747C146.924 79.7133 146.78 80.2667 146.913 80.8787C147.048 81.492 147.408 81.9973 147.879 82.232L148.159 82.3107C148.175 82.312 148.191 82.3134 148.211 82.3134C148.405 82.3134 148.988 82.184 154.185 80.6867L160.369 79.2653L160.617 79.16C161.145 78.816 161.415 78.232 161.357 77.5693C161.32 77.0373 161.057 76.3534 160.431 76.0294L160.187 75.952C160.055 75.932 159.927 75.916 157.659 76.316C157.075 76.4227 156.703 76.416 156.528 76.2907C155.996 75.9214 155.62 73.7147 155.443 72.6814L153.761 60.2174L152.928 52.804L155.719 57.0507L155.76 57.024C156.169 57.7067 157.596 59.7747 162.556 66.972L163.529 68.3653C165.224 70.7853 168.059 74.8347 169.269 77.1707L169.372 77.3227C169.791 77.804 170.423 77.8933 170.852 77.8307C171.448 77.7267 171.893 77.412 172.105 76.9454L172.159 76.7854C172.701 74.2027 174.216 68.8414 176.016 63.1254L180.611 48.3107L184.212 67.9294C184.401 69.0747 184.537 69.9014 184.551 70.4854C184.569 71.2094 184.573 71.428 183.067 71.696L181.475 71.984L181.215 72.0814C180.976 72.2254 180.763 72.4347 180.569 73.556L180.517 73.8534L181.412 75.2347L181.723 75.3013C181.877 75.3333 181.969 75.356 188.768 74.6894L195.56 74.3774Z" fill="#231F20"/>
<path d="M240.34 74.6187L240.431 74.4281L240.413 74.2187C240.353 73.5467 240.017 73.0214 239.449 72.7067C238.925 72.4054 238.313 72.344 237.809 72.5414L237.635 72.6094L237.512 72.7507C235.297 75.2747 233.496 76.6187 232.724 76.8227C231.504 77.0907 229.804 76.8507 225.973 75.8787C221.017 74.628 220.519 73.7987 220.291 73.4201C219.821 72.5761 220.149 70.7201 220.787 68.1961L222.693 60.5961L222.956 59.9947C223.191 60.0387 223.512 60.12 223.715 60.1707L226.888 60.972C228.767 61.4494 230.149 61.8427 230.803 62.2241C231.317 62.4987 231.483 62.9054 231.461 63.8347H231.468C231.455 64.0787 231.441 64.6427 231.409 66.0987L231.407 66.264L231.469 66.416C231.719 67.008 232.296 67.428 233.013 67.5414C233.613 67.6387 234.173 67.4881 234.539 67.1294L234.692 66.916C234.74 66.816 234.781 66.7307 235.221 64.6L235.899 61.3921L237.567 55.74L237.532 55.5547C237.415 54.9467 236.999 54.4907 236.361 54.2707C235.845 54.0894 235.105 54.0374 234.567 54.4334L234.427 54.5667C234.357 54.652 234.299 54.7254 233.253 56.94C232.784 57.9227 232.593 57.9361 232.275 57.9601C232.064 57.9747 231.121 57.9654 227.855 57.1414L224.685 56.3414C224.367 56.26 224.039 56.1774 223.845 56.1107C223.876 55.9627 223.929 55.7467 223.981 55.548L226.761 44.564C226.875 44.1107 226.991 43.6467 227.081 43.4C227.293 43.4347 227.615 43.516 227.74 43.548L231.68 44.5454C234.039 45.14 235.699 45.6134 236.684 46.1281C238.751 47.2361 238.84 48.7307 238.987 51.2201L239.015 51.576L239.069 51.808C239.288 52.3414 239.757 52.7067 240.407 52.8374C240.651 52.8854 241.487 52.9907 242.053 52.4774L242.215 52.2734C242.261 52.188 242.349 52.0281 242.493 51.1294C243.009 47.8841 243.429 45.12 243.343 44.14L243.249 43.252L242.353 43.2494C241.78 43.2494 238.187 42.3414 235.3 41.612C235.168 41.5787 224.896 38.9827 224.896 38.9827L218.329 37.144L218.164 37.1707C217.525 37.2707 217.025 37.7467 216.797 38.4694C216.58 39.1267 216.663 39.736 217.023 40.1414L217.177 40.276C217.241 40.3174 217.328 40.3747 218.259 40.7347C220.587 41.628 220.676 41.6627 219.249 47.3107L214.271 67.016C212.837 72.684 212.595 72.6374 210.263 72.264L208.181 71.9334L207.968 72.0347C207.347 72.3254 206.951 72.9107 206.88 73.6587C206.836 74.2707 207.015 74.7801 207.384 75.0934L207.525 75.1867C207.64 75.2481 207.709 75.2841 215.276 77.0214L220.183 78.2627C220.321 78.2987 234.803 82.132 234.803 82.132L235.243 82.248L235.556 81.9214C236.975 80.4441 239.465 76.4467 240.34 74.6187Z" fill="#231F20"/>
<path d="M265.936 79.3254C265.941 79.3214 265.945 79.32 265.945 79.32C265.96 79.308 265.96 79.3081 275.593 72.5254L276.589 71.8867L272.971 83.7267C272.916 83.9094 272.871 84.0507 272.833 84.1614C272.737 84.1001 272.617 84.02 272.471 83.916L272.427 83.9774C271.825 83.46 270.249 82.3547 266.121 79.456C266.069 79.42 266.004 79.3734 265.936 79.3254ZM282.631 61.412L282.633 61.4107C283.229 60.5627 284.075 60.1 284.879 60.1C285.283 60.1 285.676 60.2161 286.02 60.4587C287.069 61.2041 287.171 62.68 286.26 63.9707C285.751 64.6907 285.088 65.1534 284.395 65.2734C283.851 65.3654 283.329 65.2414 282.871 64.916C282.424 64.6014 282.137 64.1467 282.043 63.6014C281.923 62.8947 282.129 62.1174 282.631 61.412ZM244.467 86.1534C244.547 86.2387 244.645 86.3441 245.919 87.0627L249.348 89.0494L254.151 92.2134L254.425 92.3281C255.109 92.4627 255.755 92.2227 256.197 91.6654C256.624 91.1347 256.759 90.4654 256.544 89.9187L256.445 89.7414C256.373 89.644 256.309 89.5587 254.755 88.3827C254.468 88.1694 254.324 88.0307 254.252 87.9494C254.431 87.6974 255.131 86.968 257.781 84.9427L261.636 82.3147C262.211 81.892 262.207 81.8867 263.019 82.4574L270.624 87.8014C271.16 88.1774 271.452 88.42 271.491 88.5187C271.508 88.6134 271.381 89.008 271.373 89.0667C271.34 89.132 271.34 89.132 269.515 95.4667C269.323 96.084 268.944 97.292 268.615 97.9C268.448 97.852 268.147 97.7254 267.709 97.44L266.18 96.4587L266 96.4387C265.336 96.3627 264.747 96.664 264.373 97.2454C263.997 97.8147 263.92 98.5027 264.173 99.04L264.279 99.2067C264.337 99.2774 264.405 99.3587 265.459 100.139L269.595 103.283L274.993 107.829L275.233 107.852C275.289 107.859 275.345 107.861 275.4 107.861C275.977 107.861 276.5 107.575 276.895 107.032C277.248 106.523 277.361 105.971 277.216 105.48L277.129 105.288C277.079 105.208 277.027 105.124 275.881 103.976C274.525 102.611 274.373 101.865 275.804 97.1854C275.835 97.1214 275.835 97.1214 282.637 74.0307L284.157 68.8667C286.333 69.0627 288.456 68.1334 289.689 66.3894C291.669 63.5787 290.919 59.752 287.98 57.6787C285.044 55.6027 281.191 56.1787 279.199 58.9894C277.879 60.8654 277.78 63.3614 278.889 65.4147L276.324 67.204L276.323 67.2054C276.033 67.404 262.843 76.332 262.843 76.332L260.993 77.584L261.117 77.5921C259.297 78.8067 256.443 80.6387 255.213 81.4014L255.189 81.3654L251.511 83.776C250.196 84.6867 249.197 84.8267 248.057 84.2467L246.227 83.3387L246.035 83.3454C245.399 83.3654 244.86 83.7094 244.519 84.312C244.367 84.5747 244.044 85.2614 244.323 85.9281L244.467 86.1534Z" fill="#231F20"/>
</svg>
